<svg width="47" height="48" viewBox="0 0 47 48" fill="none" xmlns="http://www.w3.org/2000/svg">
<path d="M27.3245 35.8078C28.0221 35.8078 28.5876 35.2423 28.5876 34.5447C28.5876 33.8471 28.0221 33.2816 27.3245 33.2816C26.6269 33.2816 26.0614 33.8471 26.0614 34.5447C26.0614 35.2423 26.6269 35.8078 27.3245 35.8078Z" fill="url(#paint0_linear_23_285)"/>
<path d="M41.2544 24.8919L37.3891 21.0266H24.8158C24.3581 21.7709 23.5365 22.2674 22.5987 22.2674C21.1622 22.2674 19.9975 21.1028 19.9975 19.6662C19.9975 18.2296 21.1621 17.0651 22.5987 17.0651C23.5655 17.0651 24.4085 17.593 24.8568 18.3759H38.487L42.3522 22.2411H47C46.7338 20.5598 45.9547 18.9439 44.659 17.6481L29.4571 2.44621C26.1955 -0.815403 20.9073 -0.815403 17.6456 2.44621L8.74831 11.3437H25.6116C26.0487 10.5218 26.9135 9.96183 27.9093 9.96183C29.3459 9.96183 30.5105 11.1264 30.5105 12.563C30.5105 13.9996 29.346 15.1641 27.9093 15.1641C27.0017 15.1641 26.2031 14.699 25.7377 13.9943H6.09774L2.44397 17.6482C2.00265 18.0895 1.62316 18.5688 1.30121 19.0743H4.65338L9.99671 24.4176H31.4695C31.9263 23.6694 32.7503 23.1699 33.691 23.1699C35.1275 23.1699 36.2922 24.3345 36.2922 25.7711C36.2922 27.2077 35.1276 28.3722 33.691 28.3722C32.7269 28.3722 31.8861 27.8474 31.4368 27.0683H8.89875L3.55541 21.7249H0.201708C-0.387871 24.3634 0.315025 27.2306 2.31039 29.3192H8.66881L12.5341 33.1845H25.1074C25.5651 32.4402 26.3867 31.9437 27.3245 31.9437C28.7611 31.9437 29.9257 33.1083 29.9257 34.5449C29.9257 35.9814 28.7611 37.146 27.3245 37.146C26.3577 37.146 25.5147 36.6181 25.0664 35.8352H11.4362L7.571 31.9699H4.95426L17.6457 44.6615C20.9074 47.9231 26.1956 47.9231 29.4572 44.6615L44.659 29.4596C45.9484 28.1703 46.7258 26.5641 46.9958 24.8918L41.2544 24.8919Z" fill="url(#paint1_linear_23_285)"/>
<path d="M27.9092 13.8261C28.6068 13.8261 29.1723 13.2606 29.1723 12.563C29.1723 11.8654 28.6068 11.2999 27.9092 11.2999C27.2116 11.2999 26.6461 11.8654 26.6461 12.563C26.6461 13.2606 27.2116 13.8261 27.9092 13.8261Z" fill="url(#paint2_linear_23_285)"/>
<path d="M33.6911 27.0342C34.3887 27.0342 34.9542 26.4687 34.9542 25.7711C34.9542 25.0735 34.3887 24.508 33.6911 24.508C32.9935 24.508 32.428 25.0735 32.428 25.7711C32.428 26.4687 32.9935 27.0342 33.6911 27.0342Z" fill="url(#paint3_linear_23_285)"/>
<path d="M22.5988 20.9294C23.2964 20.9294 23.8619 20.3639 23.8619 19.6663C23.8619 18.9687 23.2964 18.4032 22.5988 18.4032C21.9012 18.4032 21.3357 18.9687 21.3357 19.6663C21.3357 20.3639 21.9012 20.9294 22.5988 20.9294Z" fill="url(#paint4_linear_23_285)"/>
<defs>
<linearGradient id="paint0_linear_23_285" x1="26.0614" y1="35.8078" x2="28.8086" y2="35.5389" gradientUnits="userSpaceOnUse">
<stop stop-color="#3FB5FD"/>
<stop offset="1" stop-color="#0B6EDA"/>
</linearGradient>
<linearGradient id="paint1_linear_23_285" x1="-1.37124e-07" y1="47.1077" x2="51.1135" y2="42.1153" gradientUnits="userSpaceOnUse">
<stop stop-color="#3FB5FD"/>
<stop offset="1" stop-color="#0B6EDA"/>
</linearGradient>
<linearGradient id="paint2_linear_23_285" x1="26.6461" y1="13.8261" x2="29.3933" y2="13.5571" gradientUnits="userSpaceOnUse">
<stop stop-color="#3FB5FD"/>
<stop offset="1" stop-color="#0B6EDA"/>
</linearGradient>
<linearGradient id="paint3_linear_23_285" x1="32.428" y1="27.0342" x2="35.1751" y2="26.7653" gradientUnits="userSpaceOnUse">
<stop stop-color="#3FB5FD"/>
<stop offset="1" stop-color="#0B6EDA"/>
</linearGradient>
<linearGradient id="paint4_linear_23_285" x1="21.3357" y1="20.9294" x2="24.0829" y2="20.6604" gradientUnits="userSpaceOnUse">
<stop stop-color="#3FB5FD"/>
<stop offset="1" stop-color="#0B6EDA"/>
</linearGradient>
</defs>
</svg>
